<svg width="325" height="288" viewBox="0 0 325 288" fill="none" xmlns="http://www.w3.org/2000/svg">
<circle cx="154" cy="170" r="104" fill="#F22539" stroke="black" stroke-width="2"/>
<mask id="mask0" mask-type="alpha" maskUnits="userSpaceOnUse" x="0" y="0" width="325" height="288">
<rect width="325" height="288" fill="#C4C4C4"/>
</mask>
<g mask="url(#mask0)">
<mask id="mask1" mask-type="alpha" maskUnits="userSpaceOnUse" x="7" y="13" width="329" height="262">
<path fill-rule="evenodd" clip-rule="evenodd" d="M244.631 217.424L289.322 269.119H335.438V13.0752H7.5625V239.374H74.2785C93.1606 261.195 121.057 275 152.178 275C192.756 275 227.852 251.53 244.631 217.424Z" fill="#C4C4C4"/>
</mask>
<g mask="url(#mask1)">
<path d="M217.706 138.7C217.706 138.7 246.647 143.354 268.39 150.356C290.132 157.351 309.101 169.235 309.101 169.235C309.101 169.235 307.357 208.515 294.054 233.524C278.447 223.046 239.901 202.034 221.369 195.496C226.137 205.163 233.591 224.229 237.567 241.742C228.061 241.588 215.33 243.979 215.33 243.979L197.62 183.776L217.706 138.7Z" fill="#F8CC46"/>
<path d="M263.338 186.634C278.229 203.639 289.506 222.403 294.852 231.967C294.589 232.494 294.325 233.015 294.048 233.531C278.441 223.053 239.895 202.041 221.363 195.504C226.131 205.17 233.586 224.236 237.562 241.749C228.055 241.596 215.324 243.986 215.324 243.986L197.614 183.783L215.429 143.806C221.42 148.137 245.067 165.764 263.338 186.634Z" fill="#ECA539"/>
<path d="M217.706 138.7C217.706 138.7 246.647 143.354 268.39 150.356C290.132 157.351 309.101 169.235 309.101 169.235C309.101 169.235 307.357 208.515 294.054 233.524C278.447 223.046 239.901 202.034 221.369 195.496C226.137 205.163 233.591 224.229 237.567 241.742C228.061 241.588 215.33 243.979 215.33 243.979L197.62 183.776L217.706 138.7Z" stroke="#333333" stroke-width="2" stroke-miterlimit="10" stroke-linecap="round" stroke-linejoin="round"/>
<path d="M210.062 194.813C210.062 194.813 209.61 208.809 211.564 220.185C213.518 231.56 216.532 242.906 224.187 255.033C231.841 267.155 236.31 272.837 236.548 280.423C240.053 277.533 244.326 275.227 245.894 276.654C247.461 278.082 246.776 279.895 246.776 279.895C246.776 279.895 248.545 278.607 249.439 279.627C250.332 280.647 250.701 282.746 249.983 285.038C251.228 284.837 251.789 286.518 250.52 290.374C249.25 294.23 244.81 305.139 233.391 316.668C221.972 328.197 211.324 336.326 204.799 332.784C202.532 331.503 202.7 328.398 202.7 328.398C202.7 328.398 201.42 329.002 197.148 328.246C192.877 327.49 172.489 321.373 159.154 320.895C145.818 320.416 127.636 320.501 108.427 326.872C108.581 329.152 107.544 334.57 98.7801 330.854C90.0163 327.138 78.6781 319.718 68.7575 306.766C58.8369 293.813 56.716 285.308 58.1292 284.449C58.831 283.941 60.0324 284.499 60.0324 284.499C60.0324 284.499 57.7671 278.899 59.298 277.952C60.829 277.006 62.9086 279.251 62.9086 279.251C62.9086 279.251 62.6002 277.379 63.7387 276.872C64.8772 276.364 66.6522 276.775 69.8012 278.957C69.71 275.282 69.789 270.594 74.756 264.115C79.723 257.636 83.5905 255.763 87.7263 254.922C89.4361 248.834 90.4289 245.557 90.9548 241.916C90.9548 241.916 81.6839 237.059 70.1411 222.132C58.5984 207.206 51.431 194.135 48.6073 186.569C45.7898 179.002 44.0702 174.236 43.2483 173.424C42.4258 172.606 41.3847 171.126 41.5283 170.477C41.6719 169.829 43.5641 170.273 43.7076 169.624C43.8512 168.976 42.4366 166.423 42.8826 165.636C43.3286 164.849 45.6355 165.201 45.8157 164.916C45.9959 164.632 45.1733 162.178 45.6358 161.555C46.0976 160.925 48.5661 161.311 49.0387 160.788C49.5112 160.264 48.1923 157.594 48.9122 156.888C49.632 156.181 55.0551 157.697 55.5605 157.437C56.0595 157.177 56.3302 154.081 57.1583 153.947C57.9863 153.813 74.6125 161.278 83.6295 166.002C92.6466 170.726 210.062 194.813 210.062 194.813Z" fill="#F8CC46" stroke="#333333" stroke-width="1.2" stroke-miterlimit="10" stroke-linecap="round" stroke-linejoin="round"/>
<path d="M71.2321 293.246C76.6837 289.635 89.8123 300.888 94.8959 304.816C99.9794 308.743 99.1592 306.816 116.096 301.206C133.039 295.59 156.347 300.855 171.719 306.918C187.09 312.981 205.957 317.057 205.957 317.057C205.957 317.057 209.996 311.102 215.208 305.239C220.421 299.375 232.16 290.268 238.432 295.002C242.93 298.392 239.707 307.372 237.516 312.196C236.253 313.667 234.879 315.169 233.386 316.676C221.967 328.211 211.319 336.333 204.794 332.792C202.526 331.511 202.695 328.405 202.695 328.405C202.695 328.405 201.414 329.01 197.143 328.254C192.872 327.497 172.484 321.381 159.148 320.902C145.813 320.424 127.63 320.509 108.422 326.879C108.575 329.159 107.538 334.577 98.7746 330.862C91.2002 327.648 81.6954 321.66 72.8441 311.726C67.9234 302.31 66.344 296.483 71.2321 293.246Z" fill="#ECA539"/>
<path d="M92.1516 233.558C92.1516 233.558 80.2048 231.474 66.6808 217.546C72.84 225.5 80.6764 236.037 90.323 241.547C91.1629 238.197 92.1516 233.558 92.1516 233.558Z" fill="#ECA539"/>
<path d="M210.062 194.813C210.062 194.813 209.61 208.809 211.564 220.185C213.518 231.56 216.532 242.906 224.187 255.033C231.841 267.155 236.31 272.837 236.548 280.423C240.053 277.534 244.326 275.227 245.894 276.654C247.461 278.082 246.776 279.895 246.776 279.895C246.776 279.895 248.545 278.607 249.439 279.627C250.332 280.647 250.701 282.746 249.983 285.038C251.228 284.837 251.789 286.518 250.52 290.374C249.25 294.23 244.81 305.139 233.391 316.668C221.972 328.197 211.324 336.326 204.799 332.784C202.532 331.503 202.7 328.398 202.7 328.398C202.7 328.398 201.42 329.002 197.148 328.246C192.877 327.49 172.489 321.373 159.154 320.895C145.818 320.416 127.636 320.501 108.427 326.872C108.581 329.152 107.544 334.57 98.7801 330.854C90.0163 327.138 78.6781 319.718 68.7575 306.766C58.8369 293.813 56.716 285.308 58.1292 284.449C58.831 283.941 60.0324 284.499 60.0324 284.499C60.0324 284.499 57.7671 278.899 59.298 277.952C60.829 277.006 62.9086 279.251 62.9086 279.251C62.9086 279.251 62.6002 277.379 63.7387 276.872C64.8772 276.364 66.6522 276.775 69.8012 278.957C69.71 275.282 69.789 270.594 74.756 264.115C79.723 257.636 83.5905 255.763 87.7263 254.922C89.4361 248.834 90.4289 245.557 90.9548 241.916C90.9548 241.916 81.6839 237.059 70.1411 222.132C58.5984 207.206 51.431 194.135 48.6073 186.569C45.7898 179.002 44.0702 174.236 43.2483 173.424C42.4258 172.606 41.3847 171.126 41.5283 170.477C41.6719 169.829 43.5641 170.273 43.7076 169.624C43.8512 168.976 42.4366 166.423 42.8826 165.636C43.3287 164.849 45.6355 165.201 45.8157 164.916C45.9959 164.632 45.1733 162.178 45.6358 161.555C46.0976 160.925 48.5661 161.311 49.0387 160.788C49.5112 160.264 48.1923 157.594 48.9122 156.888C49.632 156.181 55.0551 157.697 55.5605 157.437C56.0595 157.177 56.3302 154.081 57.1583 153.947C57.9863 153.813 74.6125 161.278 83.6295 166.002C92.6466 170.726 210.062 194.813 210.062 194.813Z" stroke="#333333" stroke-width="2" stroke-miterlimit="10" stroke-linecap="round" stroke-linejoin="round"/>
<path d="M212.497 193.852C222.621 182.847 221.035 176.507 219.069 166.4C217.103 156.294 219.211 147.363 219.439 138.621C219.667 129.879 218.891 121.663 216.677 116.388C262.965 132.024 296.802 116.148 308.761 109.238C249.303 71.6743 197.783 96.2532 197.783 96.2532C197.783 96.2532 176.109 77.3493 137.666 83.5937C154.021 70.0593 173.468 53.7283 183.045 16.8368C161.709 20.6758 112.907 45.0258 101.63 100.693C99.0632 104.546 95.0593 106.636 93.2747 120.347C91.4901 134.058 88.5398 147.189 84.8969 155.006C81.254 162.823 78.2846 174.695 98.2022 196.578C112.123 211.24 117.762 214.902 117.762 214.902" fill="#F8CC46"/>
<path d="M156.674 146.835C156.667 147.704 155.928 148.85 154.059 148.759C152.189 148.668 151.475 147.041 151.911 146.28C152.347 145.52 156.689 145.407 156.674 146.835Z" fill="#333333"/>
<path d="M188.531 138.007C182.55 140.765 181.849 150.968 185.768 155.33C189.687 159.691 197.494 160.25 201.531 156.357C205.569 152.463 206.11 143.69 201.095 139.438C196.08 135.187 190.949 136.889 188.531 138.007Z" fill="#333333"/>
<path d="M188.955 138.637C187.811 139.221 185.597 142.62 187.349 145.063C189.1 147.506 192.372 147.449 194.036 146.255C195.7 145.06 196.308 142.101 194.792 139.996C193.277 137.891 190.495 137.848 188.955 138.637Z" fill="white"/>
<path d="M121.156 129.698C118.226 127.298 110.976 126.492 106.327 131.665C101.678 136.837 102.81 144.384 107.467 147.72C112.124 151.056 120.922 148.319 122.956 143.943C124.996 139.559 124.776 132.663 121.156 129.698Z" fill="#333333"/>
<path d="M120.688 131.076C119.173 129.986 116.195 130.063 114.931 131.655C113.668 133.247 113.751 136.847 115.587 138.171C117.422 139.496 120.686 138.927 121.827 137.303C122.967 135.679 122.863 132.639 120.688 131.076Z" fill="white"/>
<path d="M183.044 16.8357C179.866 29.0828 175.592 39.056 170.713 47.4222C168.617 45.3312 163.411 44.834 148.856 47.0144C136.021 48.9331 122.853 58.5579 116.957 63.3487C136.49 33.7245 167.27 19.6714 183.044 16.8357Z" fill="#333333"/>
<path d="M308.762 109.244C298.931 114.925 274.315 126.658 240.156 121.971C245.94 120.654 257.064 117.455 265.696 110.988C275.88 103.35 278.506 97.7467 277.32 94.3847C287.364 97.623 297.931 102.4 308.762 109.244Z" fill="#333333"/>
<path d="M109.95 94.1438C109.95 94.1438 109.79 94.1853 109.517 94.3015C109.235 94.3995 108.855 94.5836 108.403 94.8066C107.959 95.0479 107.436 95.3161 106.915 95.6729C106.386 96.0114 105.843 96.4021 105.309 96.8173C105.045 97.0214 104.774 97.2261 104.516 97.4234C104.258 97.6331 104.014 97.8479 103.782 98.0552C103.311 98.4703 102.869 98.8571 102.52 99.222C101.814 99.9398 101.357 100.43 101.357 100.43C101.214 100.583 101.226 100.823 101.373 100.967C101.513 101.099 101.735 101.102 101.874 100.98L101.892 100.966C101.892 100.966 102.393 100.535 103.117 99.8722C103.303 99.7076 103.486 99.5117 103.702 99.3314C103.918 99.1512 104.145 98.9571 104.378 98.7562C104.611 98.5615 104.855 98.3467 105.093 98.1325C105.345 97.9297 105.596 97.7205 105.854 97.517C106.355 97.0925 106.886 96.7093 107.373 96.3306C107.853 95.9463 108.327 95.6196 108.706 95.3025C109.108 95.0148 109.436 94.7598 109.665 94.5846C109.901 94.4087 110.03 94.307 110.03 94.307C110.071 94.2775 110.077 94.2134 110.048 94.172C110.033 94.1482 109.993 94.1331 109.95 94.1438Z" fill="#333333" stroke="#333333"/>
<path d="M170.932 169.814C170.932 169.814 168.583 179.485 163.065 189.869C157.548 200.252 152.334 205.85 148.356 205.616C144.378 205.382 138.02 195.635 136.189 181.393C134.364 167.151 134.586 165.461 134.586 165.461C134.586 165.461 140.162 165.851 144.759 163.562C149.357 161.274 152.754 158.117 159.137 162.573C165.508 167.03 167.291 169.787 170.932 169.814Z" fill="#6C4C59" stroke="#333333" stroke-width="1.2" stroke-miterlimit="10" stroke-linecap="round" stroke-linejoin="round"/>
<path d="M136.128 180.917C138.385 177.811 143.244 173.023 151.523 173.434C160.883 173.894 164.507 181.176 165.684 184.507C164.903 186.241 164.033 188.041 163.066 189.869C157.542 200.253 152.335 205.85 148.357 205.616C144.379 205.382 138.02 195.635 136.189 181.393C136.166 181.23 136.151 181.08 136.128 180.917Z" fill="#F26981" stroke="#333333" stroke-width="1.2" stroke-miterlimit="10" stroke-linecap="round" stroke-linejoin="round"/>
<path d="M176.047 168.14C176.047 168.14 175.969 168.185 175.837 168.256C175.712 168.332 175.518 168.415 175.288 168.52C175.059 168.632 174.784 168.73 174.491 168.841C174.19 168.929 173.888 169.067 173.557 169.119C173.397 169.154 173.236 169.19 173.075 169.231C172.922 169.278 172.758 169.282 172.608 169.303C172.458 169.325 172.307 169.334 172.171 169.36C172.035 169.393 171.902 169.394 171.775 169.394C171.289 169.398 170.957 169.438 170.957 169.438L170.895 169.444C170.688 169.465 170.542 169.651 170.563 169.858C170.581 170.04 170.728 170.177 170.9 170.192C170.9 170.192 171.264 170.225 171.815 170.227C172.089 170.25 172.405 170.18 172.747 170.12C172.914 170.084 173.09 170.073 173.261 170.011C173.433 169.962 173.605 169.907 173.776 169.845C174.127 169.747 174.436 169.551 174.745 169.418C174.896 169.34 175.032 169.244 175.162 169.161C175.293 169.078 175.419 169.002 175.524 168.921C175.742 168.76 175.911 168.616 176.026 168.503C176.142 168.396 176.199 168.334 176.199 168.334L176.205 168.327C176.25 168.271 176.242 168.196 176.187 168.151C176.152 168.116 176.089 168.116 176.047 168.14Z" fill="#333333"/>
<path d="M129.276 162.8C129.276 162.8 129.315 162.878 129.425 163.026C129.529 163.174 129.68 163.362 129.873 163.583C129.967 163.694 130.091 163.796 130.211 163.917C130.335 164.025 130.457 164.165 130.607 164.27C130.906 164.481 131.211 164.736 131.563 164.91C131.901 165.117 132.259 165.284 132.606 165.401C132.777 165.466 132.942 165.532 133.106 165.585C133.263 165.646 133.423 165.661 133.566 165.698C134.147 165.81 134.531 165.854 134.531 165.854C134.736 165.878 134.923 165.726 134.947 165.521C134.967 165.341 134.856 165.181 134.698 165.121L134.645 165.101C134.645 165.101 134.304 164.983 133.784 164.845C133.654 164.807 133.513 164.79 133.373 164.721C133.234 164.659 133.083 164.611 132.926 164.551C132.768 164.491 132.605 164.444 132.446 164.371C132.292 164.291 132.132 164.212 131.967 164.14C131.631 164.009 131.338 163.804 131.049 163.636C130.896 163.557 130.772 163.455 130.643 163.373C130.52 163.284 130.386 163.208 130.289 163.123C130.076 162.954 129.892 162.821 129.78 162.718C129.663 162.622 129.593 162.553 129.593 162.553C129.515 162.472 129.388 162.472 129.308 162.55C129.244 162.613 129.234 162.703 129.268 162.782L129.276 162.8Z" fill="#333333"/>
<path d="M208.173 165.015C212.721 164.19 217.513 167.925 219.758 169.988C221.249 178.145 221.372 184.207 212.497 193.857C210.98 195.506 209.553 196.981 208.182 198.324C194.387 197.244 193.506 185.019 195.038 177.541C196.628 169.765 201.959 166.141 208.173 165.015Z" fill="#F22539" stroke="#333333" stroke-width="1.2" stroke-miterlimit="10" stroke-linecap="round" stroke-linejoin="round"/>
<path d="M83.3129 159.016C86.1615 156.072 92.0476 152.817 98.6147 156.963C107.06 162.296 108.23 175.495 104.097 182.41C101 187.598 94.3186 188.105 91.1732 188.034C81.3273 174.504 81.2839 165.516 83.3129 159.016Z" fill="#F22539" stroke="#333333" stroke-width="1.2" stroke-miterlimit="10" stroke-linecap="round" stroke-linejoin="round"/>
<path d="M158.156 222.145C158.124 223.842 151.381 228.325 144.299 228.187C137.219 228.056 131.915 223.517 131.974 222.027C132.033 220.537 138.896 221.648 144.209 222.064C149.522 222.488 158.192 220.24 158.156 222.145Z" fill="#ECA539"/>
<path d="M91.3144 241.969C91.3144 241.969 91.6219 240.245 92.0834 237.662C92.2754 236.362 92.4565 234.828 92.6719 233.196C92.868 231.559 93.0213 229.813 93.1816 228.072C93.303 226.322 93.4501 224.576 93.5446 222.937C93.6392 221.298 93.7063 219.763 93.7196 218.449C93.733 217.135 93.7365 216.038 93.7103 215.273C93.6965 214.507 93.6648 214.067 93.6648 214.067C93.6635 213.991 93.5946 213.934 93.5256 213.941C93.4567 213.948 93.4048 213.998 93.3986 214.062C93.3986 214.062 93.3538 214.497 93.2661 215.261C93.1784 216.024 93.0978 217.11 92.9698 218.417C92.8668 219.721 92.7352 221.243 92.6275 222.877C92.5198 224.511 92.3595 226.252 92.2243 227.991C92.1348 228.862 92.0509 229.726 91.9657 230.578C91.8806 231.43 91.8205 232.28 91.7247 233.088C91.5336 234.712 91.3563 236.22 91.2019 237.516C90.8306 240.115 90.5808 241.846 90.5808 241.846C90.5509 242.052 90.6907 242.247 90.8962 242.277C91.0892 242.309 91.2839 242.169 91.3144 241.969Z" fill="#333333" stroke="#333333"/>
<path d="M103.684 255.867C103.684 255.867 103.462 255.737 103.051 255.55C102.64 255.369 102.057 255.104 101.324 254.861C100.596 254.611 99.7292 254.356 98.785 254.153C98.3138 254.06 97.822 253.951 97.322 253.888C96.8202 253.805 96.3077 253.742 95.7971 253.699C95.2852 253.642 94.7666 253.644 94.2585 253.625C93.7492 253.594 93.2474 253.638 92.7669 253.642C92.2796 253.64 91.8192 253.718 91.3738 253.757C90.9284 253.795 90.5182 253.868 90.133 253.938C89.754 254.008 89.3989 254.063 89.097 254.144C88.7888 254.226 88.5239 254.297 88.3085 254.357C87.8713 254.477 87.6252 254.546 87.6252 254.546C87.4222 254.604 87.3103 254.812 87.3618 255.01C87.4127 255.201 87.6082 255.321 87.7999 255.276L87.8312 255.273C87.8312 255.273 88.073 255.224 88.5001 255.13C88.7106 255.083 88.9705 255.026 89.2674 254.958C89.5649 254.896 89.9088 254.855 90.2758 254.793C90.6429 254.731 91.0413 254.665 91.4747 254.634C91.9013 254.598 92.3504 254.533 92.8177 254.525C93.2844 254.509 93.7668 254.461 94.2617 254.474C94.7559 254.482 95.2552 254.476 95.7527 254.515C96.2544 254.534 96.7512 254.566 97.238 254.625C97.7292 254.665 98.2054 254.744 98.674 254.811C99.6006 254.965 100.471 255.124 101.199 255.318C102.671 255.677 103.613 256.039 103.613 256.039C103.665 256.059 103.72 256.034 103.74 255.981C103.742 255.943 103.724 255.888 103.684 255.867Z" fill="#333333" stroke="#333333"/>
<path d="M151.523 173.434C160.883 173.894 164.507 181.177 165.684 184.508C165.524 184.867 165.352 185.233 165.18 185.605C163.521 183.388 158.965 178.418 151.469 178.437C143.227 178.454 139.024 179.574 136.411 182.976C136.328 182.458 136.256 181.932 136.183 181.401C136.161 181.238 136.145 181.081 136.123 180.925C138.386 177.819 143.244 173.024 151.523 173.434Z" fill="#B94966"/>
<path d="M136.128 180.917C138.385 177.811 143.244 173.023 151.523 173.434C160.883 173.894 164.507 181.176 165.684 184.507C164.903 186.241 164.033 188.041 163.066 189.869C157.542 200.253 152.335 205.85 148.357 205.616C144.379 205.382 138.02 195.635 136.189 181.393C136.166 181.23 136.151 181.08 136.128 180.917Z" stroke="#333333" stroke-width="1.2" stroke-miterlimit="10" stroke-linecap="round" stroke-linejoin="round"/>
<path d="M240.156 121.973C240.156 121.973 219.053 115.357 213.423 110.774C215.472 113.973 216.522 116.043 216.522 116.043C216.522 116.043 231.766 121.402 240.156 121.973Z" fill="#ECA539"/>
<path d="M217.021 116.227C217.021 116.227 216.746 115.57 216.307 114.599C216.207 114.356 216.048 114.099 215.894 113.829C215.741 113.559 215.579 113.271 215.409 112.971C215.071 112.371 214.64 111.806 214.244 111.199C214.049 110.895 213.824 110.613 213.607 110.337C213.389 110.061 213.172 109.785 212.962 109.527C212.525 109.013 212.116 108.54 211.736 108.16C211.368 107.766 211.04 107.463 210.81 107.251C210.579 107.034 210.436 106.927 210.436 106.927C210.388 106.894 210.325 106.901 210.285 106.943C210.257 106.977 210.256 107.034 210.285 107.069C210.285 107.069 210.704 107.642 211.328 108.505C211.649 108.93 211.98 109.454 212.381 109.978C212.567 110.251 212.76 110.536 212.953 110.821C213.141 111.113 213.365 111.389 213.546 111.687C213.917 112.284 214.329 112.864 214.633 113.436C214.801 113.717 214.961 113.986 215.113 114.244C215.266 114.501 215.416 114.733 215.529 114.982C216.011 115.935 216.352 116.56 216.352 116.56C216.453 116.747 216.681 116.813 216.867 116.712C217.022 116.614 217.09 116.404 217.021 116.227Z" fill="#333333" stroke="#333333"/>
<path d="M160.979 61.3638C160.979 61.3638 142.048 78.1566 127.381 86.3343C134.586 84.1828 137.66 83.601 137.66 83.601C137.66 83.601 157.025 67.589 160.979 61.3638Z" fill="#ECA539"/>
<path d="M183.077 215.338C185.244 214.233 187.411 213.127 189.553 211.967C191.703 210.825 193.821 209.61 195.908 208.347C197.995 207.079 200.013 205.683 201.944 204.189C203.868 202.683 205.704 201.059 207.464 199.367C209.209 197.657 210.906 195.907 212.554 194.112C214.202 192.316 215.777 190.427 217.12 188.37C218.458 186.314 219.561 184.079 220.168 181.685C220.801 179.294 220.865 176.783 220.633 174.346C220.405 171.896 219.917 169.497 219.455 167.109C218.981 164.721 218.67 162.324 218.566 159.899C218.331 155.047 218.83 150.196 219.279 145.345C219.503 142.919 219.688 140.478 219.739 138.032C219.791 135.592 219.778 133.139 219.659 130.697C219.534 128.255 219.307 125.812 218.918 123.39C218.51 120.971 217.951 118.561 217.011 116.258L216.543 116.762L219.386 117.668L220.805 118.121L222.238 118.529L225.11 119.343L228.004 120.061C228.966 120.313 229.942 120.519 230.912 120.726C231.888 120.926 232.854 121.158 233.833 121.332L236.771 121.855C237.751 122.035 238.737 122.152 239.72 122.3L241.197 122.513L242.682 122.681C243.673 122.784 244.661 122.919 245.649 122.991L248.627 123.224L251.609 123.368C252.602 123.427 253.601 123.415 254.596 123.435L256.091 123.456L257.582 123.427C259.573 123.41 261.562 123.305 263.543 123.182L266.518 122.94L269.484 122.616L272.442 122.205L275.385 121.712L278.315 121.145L281.23 120.497L284.124 119.768C285.083 119.494 286.045 119.239 286.997 118.953C294.648 116.642 302.044 113.552 308.945 109.567C309.125 109.467 309.19 109.232 309.083 109.052C309.052 108.998 309.004 108.953 308.956 108.919C306.897 107.636 304.822 106.38 302.709 105.185C301.649 104.594 300.595 103.99 299.52 103.432C298.45 102.855 297.375 102.297 296.29 101.76C294.13 100.664 291.921 99.65 289.708 98.6615C287.479 97.7062 285.24 96.771 282.961 95.935C273.874 92.5307 264.403 90.1542 254.778 88.941C245.157 87.7146 235.387 87.6509 225.748 88.7599C220.932 89.3141 216.146 90.1696 211.434 91.322C209.082 91.9073 206.744 92.561 204.434 93.3133C202.125 94.0718 199.847 94.8844 197.608 95.9022L198.018 95.956C196.976 95.0907 195.9 94.3302 194.794 93.5917C193.689 92.8595 192.551 92.175 191.403 91.5231C190.255 90.865 189.081 90.2603 187.889 89.6762C186.704 89.0916 185.492 88.554 184.276 88.0359C183.054 87.5247 181.823 87.0461 180.582 86.6002C179.335 86.1612 178.084 85.7354 176.813 85.3624C176.185 85.1592 175.548 84.9887 174.904 84.8188C174.267 84.6482 173.628 84.4652 172.987 84.3204L171.056 83.8678L169.112 83.4674C168.465 83.3295 167.81 83.2368 167.159 83.1184C166.509 83.0063 165.859 82.8941 165.205 82.814L163.242 82.5485L161.273 82.3471C159.962 82.2063 158.64 82.1428 157.321 82.0535C156.001 82.0213 154.683 81.932 153.363 81.9569L151.383 81.9595L149.402 82.0255C148.083 82.0568 146.766 82.1702 145.446 82.2586C144.126 82.3407 142.822 82.5289 141.506 82.6549C140.194 82.8186 138.892 83.0256 137.588 83.2075L137.889 83.8747C143.176 79.5066 148.444 75.077 153.328 70.2232C154.554 69.0155 155.745 67.7734 156.923 66.5199C158.086 65.2552 159.235 63.9728 160.35 62.6623C162.579 60.0349 164.683 57.3058 166.645 54.477C168.607 51.6481 170.432 48.7189 172.103 45.71L173.336 43.4364L174.51 41.1371C175.258 39.5843 176.001 38.0322 176.69 36.4537C177.047 35.6695 177.366 34.8702 177.697 34.076C178.035 33.2811 178.353 32.4818 178.658 31.6775C179.294 30.079 179.858 28.4497 180.435 26.8254C180.966 25.1867 181.524 23.5581 181.996 21.9C182.508 20.2569 182.934 18.5843 183.394 16.9275C183.45 16.7253 183.334 16.5213 183.133 16.4655C183.074 16.4524 183.017 16.4455 182.967 16.4568L182.961 16.4574C177.867 17.4009 172.951 19.0368 168.172 20.9695C163.402 22.9205 158.781 25.2305 154.328 27.8279C145.422 33.0165 137.184 39.3682 129.944 46.7164C126.327 50.3902 122.95 54.3062 119.888 58.4632C116.826 62.6138 114.045 66.9835 111.631 71.5446C106.763 80.6516 103.293 90.4932 101.248 100.616L101.305 100.484C100.561 101.586 99.6574 102.602 98.8113 103.689C97.9583 104.771 97.1762 105.927 96.5275 107.153C95.2045 109.601 94.4041 112.275 93.7879 114.955C93.1786 117.642 92.8463 120.377 92.465 123.065C92.0781 125.761 91.6335 128.45 91.1502 131.13C90.1771 136.491 88.9917 141.816 87.414 147.016C86.6186 149.614 85.7122 152.178 84.5991 154.636C83.4377 157.118 82.4826 159.763 82.0826 162.517C81.6694 165.266 81.8076 168.087 82.3522 170.797C82.9038 173.512 83.8499 176.125 85.0183 178.62C86.1804 181.116 87.5893 183.485 89.1096 185.767C90.6361 188.048 92.2867 190.241 94.0299 192.349C94.9014 193.402 95.7856 194.455 96.6979 195.473C97.1606 195.984 97.5913 196.493 98.0798 197.008L99.5054 198.475L102.351 201.416C103.304 202.392 104.285 203.346 105.261 204.307C106.231 205.268 107.212 206.216 108.223 207.141C109.227 208.068 110.203 209.022 111.247 209.906C113.29 211.717 115.396 213.471 117.67 215.012C117.731 215.05 117.812 215.035 117.85 214.975C117.888 214.914 117.874 214.839 117.819 214.794L117.812 214.788C117.273 214.392 116.736 213.964 116.218 213.528C115.693 213.093 115.175 212.656 114.672 212.193C113.641 211.308 112.643 210.387 111.645 209.454C110.642 208.541 109.666 207.586 108.679 206.645C107.687 205.712 106.724 204.756 105.766 203.787C104.809 202.824 103.827 201.877 102.875 200.901L100.029 197.959L98.6093 196.485C98.156 196.005 97.7046 195.479 97.2556 194.979C96.3502 193.967 95.4736 192.926 94.6146 191.871C92.8852 189.775 91.2554 187.599 89.7501 185.341C88.2511 183.082 86.8642 180.742 85.7253 178.289C84.5807 175.842 83.6591 173.284 83.1276 170.643C82.6031 168.007 82.4688 165.288 82.8726 162.634C83.2633 159.976 84.1778 157.43 85.3354 154.974C86.4755 152.469 87.3912 149.872 88.2035 147.254C89.8018 142.008 91.0042 136.662 91.9878 131.281C92.4825 128.587 92.9139 125.893 93.2989 123.178C93.672 120.471 93.995 117.769 94.5837 115.129C95.1792 112.495 95.954 109.88 97.2225 107.521C97.8437 106.336 98.592 105.221 99.4219 104.161C100.245 103.095 101.154 102.065 101.935 100.902C101.963 100.861 101.978 100.822 101.992 100.776L101.991 100.77C104.024 90.7177 107.47 80.9482 112.299 71.9022C114.698 67.3744 117.463 63.038 120.503 58.9149C123.543 54.7856 126.898 50.9035 130.491 47.251C137.685 39.9518 145.871 33.6435 154.717 28.4863C159.14 25.9109 163.731 23.6166 168.471 21.6751C173.207 19.753 178.093 18.1328 183.106 17.2038L182.672 16.7338C182.218 18.3837 181.791 20.0437 181.284 21.6799C180.811 23.3254 180.259 24.9472 179.733 26.579C179.161 28.19 178.603 29.8124 177.966 31.3984C177.667 32.2021 177.348 32.9951 177.01 33.7837C176.678 34.5716 176.366 35.3703 176.007 36.1482C175.324 37.7198 174.587 39.265 173.843 40.8046L172.675 43.0907L171.453 45.3442C169.792 48.3331 167.984 51.2416 166.033 54.0503C164.082 56.859 161.995 59.5737 159.783 62.1803C158.674 63.484 157.536 64.7588 156.378 66.0166C155.207 67.2632 154.021 68.4985 152.807 69.6986C147.952 74.5241 142.708 78.9386 137.414 83.3011C137.25 83.4317 137.23 83.6747 137.366 83.8322C137.453 83.9376 137.584 83.9815 137.709 83.9689L137.715 83.9683C139.013 83.787 140.308 83.5806 141.608 83.4182C142.912 83.2935 144.209 83.1059 145.517 83.0251C146.823 82.9317 148.128 82.8195 149.435 82.7895L151.396 82.7191L153.357 82.7184C154.665 82.6947 155.977 82.7847 157.283 82.8118C158.589 82.9024 159.899 82.9609 161.197 83.103L163.154 83.3056L165.098 83.573C165.745 83.6538 166.395 83.7596 167.04 83.8787C167.684 83.9977 168.332 84.0847 168.973 84.2233L170.898 84.6193L172.81 85.0675C173.451 85.2123 174.076 85.3903 174.707 85.5615C175.338 85.7327 175.969 85.9038 176.596 86.1007C177.854 86.4688 179.092 86.8896 180.326 87.3235C181.559 87.7638 182.778 88.2436 183.986 88.7435C185.19 89.2566 186.382 89.7898 187.56 90.3688C188.732 90.9484 189.9 91.5475 191.034 92.1944C192.168 92.8412 193.293 93.5144 194.378 94.2359C195.463 94.9575 196.539 95.718 197.52 96.5388C197.638 96.641 197.798 96.6567 197.93 96.5926C200.097 95.6138 202.38 94.788 204.666 94.0446C206.957 93.3004 209.277 92.6486 211.617 92.0708C216.298 90.9216 221.046 90.0699 225.838 89.5245C235.414 88.4218 245.121 88.4855 254.684 89.705C264.246 90.9182 273.664 93.2746 282.698 96.6589C284.965 97.4899 287.19 98.4201 289.406 99.3703C291.612 100.353 293.801 101.357 295.954 102.447C297.032 102.979 298.107 103.536 299.164 104.108C300.233 104.667 301.28 105.265 302.339 105.85C304.438 107.034 306.507 108.284 308.552 109.562L308.563 108.914C301.715 112.862 294.368 115.935 286.8 118.193C285.854 118.478 284.899 118.733 283.945 119L281.07 119.726L278.174 120.373L275.263 120.938L272.338 121.423L269.399 121.832L266.451 122.154L263.495 122.395C261.521 122.517 259.551 122.626 257.572 122.641L256.088 122.67L254.605 122.648C253.616 122.627 252.63 122.638 251.644 122.578L248.681 122.439L245.722 122.21C244.734 122.138 243.759 122.002 242.774 121.904L241.303 121.741L239.832 121.528C238.856 121.379 237.869 121.262 236.903 121.087L233.984 120.569C233.011 120.394 232.046 120.168 231.077 119.967C230.107 119.767 229.144 119.559 228.182 119.307L225.301 118.595L222.448 117.785L221.021 117.377L219.609 116.923L216.785 116.021C216.582 115.959 216.372 116.069 216.31 116.265C216.28 116.351 216.289 116.439 216.316 116.518L216.317 116.525C217.241 118.734 217.808 121.099 218.231 123.479C218.629 125.867 218.879 128.283 219.021 130.704C219.157 133.132 219.193 135.557 219.146 137.99C219.106 140.416 218.925 142.838 218.708 145.269C218.271 150.113 217.782 155.001 218.035 159.902C218.148 162.351 218.476 164.797 218.957 167.184C219.425 169.572 219.912 171.964 220.148 174.369C220.377 176.775 220.319 179.215 219.712 181.547C219.124 183.882 218.054 186.076 216.739 188.104C215.419 190.133 213.88 192.006 212.231 193.795C210.561 195.561 208.884 197.321 207.094 198.96C205.303 200.598 203.455 202.167 201.513 203.618C199.585 205.08 197.576 206.43 195.515 207.708C193.462 208.999 191.349 210.195 189.251 211.42C187.139 212.628 185.028 213.842 182.93 215.068C182.858 215.107 182.835 215.198 182.88 215.263C182.926 215.347 183.011 215.371 183.077 215.338Z" fill="#333333" stroke="#333333"/>
<path d="M120.949 89.2575C120.949 89.2575 121.977 88.8497 123.516 88.2321C123.898 88.0731 124.327 87.9348 124.765 87.7576C125.21 87.5861 125.673 87.4127 126.154 87.2248C126.643 87.0551 127.145 86.8842 127.658 86.6994C128.164 86.509 128.683 86.3237 129.212 86.169C129.739 86.0019 130.261 85.8416 130.776 85.6819C131.29 85.5097 131.81 85.3878 132.302 85.2495C132.801 85.1168 133.281 84.9861 133.737 84.8641C134.193 84.7359 134.625 84.629 135.029 84.5567C136.64 84.2171 137.717 83.9757 137.717 83.9757L137.747 83.9662C137.951 83.9203 138.077 83.7175 138.031 83.5129C137.985 83.3145 137.796 83.1941 137.603 83.2199C137.603 83.2199 136.5 83.3942 134.847 83.6873C134.429 83.7546 133.99 83.8558 133.529 83.9847C133.066 84.101 132.572 84.2267 132.067 84.36C131.561 84.487 131.03 84.6165 130.517 84.8075C129.997 84.9804 129.464 85.1545 128.938 85.3342C128.404 85.502 127.886 85.6999 127.369 85.8979C126.856 86.0889 126.352 86.2981 125.872 86.4923C125.393 86.7053 124.933 86.9101 124.497 87.1061C124.061 87.2958 123.651 87.5019 123.285 87.6973C122.912 87.8933 122.575 88.0667 122.275 88.23C121.982 88.399 121.726 88.5516 121.517 88.6741C121.092 88.9197 120.867 89.0755 120.868 89.0818C120.82 89.1119 120.808 89.1766 120.838 89.2243C120.854 89.2544 120.906 89.2682 120.949 89.2575Z" fill="#333333" stroke="#333333"/>
<path d="M192.968 275.8C192.968 275.8 211.213 271.239 207.1 258.653C202.938 266.091 200.286 269.852 192.968 275.8Z" fill="#ECA539"/>
<path d="M169.63 229.152C169.63 229.152 169.532 229.25 169.337 229.448C169.141 229.639 168.861 229.933 168.501 230.324C167.769 231.095 166.734 232.252 165.477 233.786C164.206 235.303 162.754 237.224 161.179 239.494C159.61 241.764 157.926 244.393 156.276 247.368C154.627 250.343 152.979 253.654 151.621 257.323C151.31 258.255 150.999 259.193 150.677 260.144C150.375 261.101 150.105 262.066 149.818 263.053C149.263 265.017 148.719 267.031 148.218 269.098C147.717 271.158 147.246 273.273 146.862 275.43C146.498 277.597 146.148 279.788 146.21 282.102C146.25 282.688 146.277 283.269 146.552 283.926C146.88 284.8 147.985 284.898 148.602 284.684C148.927 284.581 149.215 284.419 149.433 284.321C149.534 284.26 149.661 284.26 149.534 284.254C149.52 284.243 149.443 284.238 149.415 284.202C149.381 284.18 149.361 284.17 149.351 284.139C149.287 284 149.344 284.127 149.336 284.109L149.353 284.158C149.369 284.194 149.379 284.225 149.373 284.232L149.417 284.538L149.464 284.946L149.549 285.787C149.612 286.358 149.689 286.933 149.844 287.526C149.918 287.823 150.024 288.123 150.168 288.426C150.343 288.719 150.523 289.056 150.93 289.269L150.998 289.313C151.018 289.323 151.111 289.365 151.091 289.354L151.189 289.388C151.255 289.414 151.314 289.439 151.424 289.46C151.638 289.514 151.81 289.523 151.987 289.524C152.335 289.521 152.657 289.45 152.959 289.369C153.543 289.202 154.081 288.952 154.476 288.918C154.665 288.906 154.731 288.937 154.83 289.041C154.915 289.128 155.033 289.363 155.12 289.595C155.301 290.078 155.408 290.632 155.677 291.233C155.749 291.384 155.828 291.541 155.959 291.705C156.03 291.787 156.088 291.863 156.198 291.941L156.273 291.997C156.333 292.029 156.248 291.999 156.42 292.077L156.518 292.112C156.538 292.116 156.545 292.122 156.571 292.132L156.693 292.151C156.777 292.162 156.859 292.166 156.941 292.164C157.053 292.147 157.165 292.123 157.263 292.094C157.447 292.031 157.603 291.952 157.74 291.868C158.277 291.542 158.717 291.136 159.097 290.946C159.174 290.9 159.257 290.904 159.18 290.899C159.174 290.894 159.136 290.897 159.122 290.88L159.065 290.822L159.101 290.863C159.177 290.931 159.145 290.928 159.145 290.928C159.208 291.042 159.266 291.309 159.311 291.571C159.358 291.845 159.401 292.145 159.516 292.476C159.624 292.795 159.874 293.207 160.299 293.399C160.437 293.455 160.365 293.424 160.41 293.439L160.462 293.453C160.507 293.461 160.509 293.473 160.586 293.484C160.714 293.503 160.88 293.518 160.967 293.497C161.18 293.475 161.357 293.413 161.515 293.347C161.83 293.207 162.079 293.043 162.311 292.899C162.543 292.749 162.769 292.612 162.946 292.543C163.031 292.509 163.1 292.502 163.113 292.507L163.12 292.507C163.1 292.502 163.172 292.521 163.079 292.485L163.172 292.527C163.245 292.558 163.195 292.563 163.22 292.566C163.493 292.818 163.76 293.336 164.049 293.821C164.2 294.066 164.353 294.323 164.62 294.594C164.759 294.72 164.94 294.879 165.266 294.916C165.317 294.917 165.449 294.91 165.53 294.89C165.597 294.87 165.633 294.854 165.682 294.836C165.774 294.802 165.846 294.763 165.918 294.73C166.47 294.427 166.893 294.099 167.347 293.775C167.789 293.445 168.224 293.122 168.659 292.793C170.396 291.496 172.13 290.25 173.974 289.329C175.871 288.371 177.738 287.498 179.479 286.378C180.355 285.84 181.241 285.339 182.078 284.785C182.893 284.209 183.703 283.645 184.501 283.083C185.292 282.515 186.099 281.99 186.844 281.408C187.582 280.814 188.301 280.228 189.016 279.655C190.424 278.499 191.86 277.422 193.085 276.266C195.626 274.038 197.822 271.781 199.66 269.732C201.475 267.648 202.988 265.771 204.073 264.102C204.355 263.693 204.613 263.305 204.861 262.938C205.089 262.56 205.299 262.203 205.5 261.872C205.896 261.211 206.225 260.645 206.455 260.165C206.929 259.217 207.182 258.71 207.182 258.71C207.203 258.67 207.185 258.621 207.145 258.599C207.105 258.578 207.063 258.595 207.034 258.629L207.029 258.636C207.029 258.636 206.735 259.116 206.187 260.021C205.93 260.478 205.56 261.016 205.123 261.643C204.908 261.957 204.683 262.296 204.435 262.664C204.173 263.014 203.893 263.384 203.598 263.782C203.302 264.173 202.996 264.59 202.659 265.017C202.315 265.432 201.955 265.875 201.577 266.331C200.854 267.266 199.967 268.199 199.071 269.227C197.183 271.218 195.071 273.428 192.51 275.645C191.272 276.803 189.877 277.837 188.461 278.988C187.753 279.554 187.033 280.134 186.301 280.721C185.561 281.296 184.759 281.808 183.98 282.368C183.187 282.917 182.39 283.479 181.579 284.043C180.754 284.582 179.886 285.069 179.027 285.593C177.339 286.676 175.435 287.559 173.556 288.502C171.609 289.465 169.839 290.74 168.083 292.033C167.217 292.665 166.321 293.39 165.465 293.875C165.417 293.899 165.363 293.923 165.326 293.94L165.284 293.957C165.301 293.942 165.366 293.955 165.348 293.963C165.394 293.984 165.335 293.964 165.279 293.907C165.153 293.786 165.01 293.566 164.881 293.344C164.595 292.891 164.397 292.372 163.857 291.849C163.767 291.776 163.618 291.677 163.566 291.657L163.473 291.615C163.347 291.564 163.381 291.586 163.329 291.573L163.233 291.557C162.97 291.52 162.761 291.579 162.59 291.641C162.248 291.77 162.006 291.94 161.761 292.085C161.312 292.397 160.821 292.611 160.696 292.509C160.603 292.462 160.524 292.368 160.447 292.167C160.376 291.965 160.338 291.709 160.29 291.428C160.236 291.142 160.213 290.846 160.015 290.454C159.946 290.328 159.845 290.205 159.811 290.183L159.775 290.142C159.677 290.05 159.68 290.075 159.625 290.036C159.545 289.994 159.452 289.946 159.375 289.935C159.297 289.924 159.215 289.919 159.133 289.921C159.057 289.922 159.008 289.94 158.946 289.953C158.816 289.978 158.744 290.024 158.653 290.058C158.034 290.387 157.649 290.768 157.212 291.015C157.11 291.076 157.013 291.117 156.928 291.151C156.891 291.161 156.86 291.164 156.835 291.173C156.847 291.166 156.86 291.171 156.873 291.176C156.88 291.181 156.887 291.187 156.888 291.193C156.882 291.194 156.855 291.184 156.842 291.179C156.792 291.184 156.684 291.055 156.586 290.837C156.391 290.406 156.277 289.841 156.068 289.266C155.95 288.973 155.85 288.679 155.551 288.341C155.466 288.254 155.348 288.152 155.308 288.131L155.22 288.07C155.099 288 155.14 288.034 155.093 288.007L155.014 287.976C154.797 287.891 154.575 287.888 154.386 287.9C153.655 287.986 153.163 288.251 152.663 288.384C152.417 288.453 152.187 288.495 151.973 288.504C151.865 288.502 151.763 288.494 151.699 288.481C151.674 288.484 151.602 288.459 151.536 288.434L151.437 288.4C151.385 288.38 151.451 288.405 151.437 288.4L151.417 288.383C151.184 288.273 150.951 287.776 150.832 287.287C150.7 286.787 150.626 286.249 150.565 285.697L150.474 284.863L150.425 284.431C150.403 284.281 150.389 284.142 150.328 283.908C150.315 283.846 150.299 283.809 150.29 283.785L150.272 283.736C150.249 283.687 150.302 283.777 150.21 283.615C150.151 283.532 150.093 283.462 150.004 283.395C149.909 283.335 149.776 283.272 149.694 283.268C149.286 283.239 149.141 283.368 148.994 283.42C148.711 283.557 148.507 283.672 148.298 283.738C148.109 283.807 147.894 283.804 147.784 283.777C147.772 283.784 147.692 283.748 147.633 283.722L147.54 283.681C147.613 283.718 147.559 283.685 147.579 283.696C147.565 283.685 147.515 283.626 147.481 283.535C147.317 283.164 147.261 282.606 147.228 282.089C147.165 279.952 147.494 277.756 147.85 275.634C148.218 273.505 148.678 271.411 149.175 269.363C149.671 267.316 150.203 265.309 150.753 263.352C151.029 262.379 151.297 261.401 151.595 260.458C151.905 259.52 152.211 258.595 152.511 257.683C153.837 254.069 155.457 250.793 157.077 247.846C158.705 244.898 160.359 242.284 161.91 240.03C163.44 237.758 164.854 235.834 166.017 234.246C167.186 232.663 168.14 231.445 168.783 230.607C169.434 229.78 169.787 229.333 169.787 229.333C169.827 229.284 169.82 229.215 169.771 229.176C169.733 229.11 169.671 229.116 169.63 229.152Z" fill="#333333" stroke="#333333"/>
</g>
</g>
</svg>
